<svg xmlns="http://www.w3.org/2000/svg" viewBox="0 0 512 512" role="img" aria-labelledby="title">
  <title id="title">WLD Terminal</title>
  <rect width="512" height="512" fill="#0d0f0c"/>
  <path d="M72 54h86M54 72v86M354 54h86M458 72v86M54 354v86M72 458h86M458 354v86M354 458h86"
        fill="none" stroke="#6e7452" stroke-width="12" stroke-linecap="square"/>
  <path d="M108 126h296M108 386h296" fill="none" stroke="#2b3025" stroke-width="6"/>
  <g fill="#d4a84d">
    <rect x="108" y="86" width="34" height="10"/>
    <rect x="154" y="86" width="12" height="10" opacity=".55"/>
    <rect x="178" y="86" width="12" height="10" opacity=".3"/>
  </g>
  <path d="m126 190 86 67-86 67" fill="none" stroke="#e5dec8" stroke-width="34"
        stroke-linecap="square" stroke-linejoin="miter"/>
  <rect x="246" y="306" width="132" height="24" fill="#d4a84d"/>
  <rect x="366" y="86" width="38" height="10" fill="#899267"/>
  <g fill="#899267">
    <rect x="108" y="416" width="12" height="12"/>
    <rect x="132" y="416" width="44" height="12" opacity=".55"/>
    <rect x="188" y="416" width="18" height="12" opacity=".28"/>
  </g>
</svg>
